<?xml version="1.0" encoding="utf-8"?>
<svg viewBox="166.154 10.813 751.98 680.407" xmlns="http://www.w3.org/2000/svg">
  <path fill="#267790" opacity="1.000000" stroke="none" d=" M218.030121,1057.083130 C196.891541,1058.501099 179.736694,1037.318481 179.752731,1017.053040 C180.001938,701.912354 180.023254,386.771423 179.990463,71.630554 C179.988159,49.474213 196.933853,31.854496 219.463760,31.984333 C259.459290,32.214817 299.457092,32.049248 339.453949,32.049374 C341.427795,32.049377 343.401642,32.049374 345.264038,32.049374 C346.992126,24.050520 346.992126,24.048674 355.454987,24.048676 C472.112457,24.048698 588.769897,24.049219 705.427368,24.049809 C713.574402,24.049849 713.574402,24.050537 716.698853,32.049381 C718.524414,32.049381 720.504883,32.049385 722.485413,32.049385 C769.315063,32.049309 816.144653,32.077065 862.974304,32.035370 C881.539612,32.018837 895.143738,42.679192 900.117065,59.479565 C901.122681,62.876572 901.878479,66.500565 901.879333,70.020119 C901.958435,383.828705 901.956360,697.637268 901.913879,1011.445862 C901.913208,1016.051941 901.735352,1020.726074 900.959106,1025.251587 C898.208008,1041.289429 888.592529,1051.439453 873.227722,1056.221436 C870.924805,1056.938232 868.341614,1056.754272 864.981445,1057.014404 C773.305176,1057.047241 682.535400,1057.052856 591.765686,1057.058716 C467.187164,1057.066772 342.608643,1057.075073 218.030121,1057.083130 M341.129211,82.122169 C341.129211,79.875961 341.129211,77.629753 341.129211,75.422836 C335.752197,75.422836 331.215851,75.422836 326.744995,75.422836 C326.492737,76.288467 326.241119,76.755951 326.236633,77.225792 C326.147675,86.534660 325.970886,95.844780 326.049713,105.152634 C326.156555,117.764549 334.786804,126.335579 347.469788,126.460960 C358.442078,126.569435 369.416351,126.496460 380.389648,126.474915 C382.171692,126.471420 383.953461,126.318398 385.816101,126.230690 C385.816101,121.201607 385.816101,116.639595 385.816101,111.519936 C383.670898,111.519936 381.878387,111.520287 380.085846,111.519875 C369.943787,111.517540 359.800262,111.603645 349.661041,111.432655 C347.787689,111.401070 345.931824,110.330269 344.996613,109.696892 C357.157654,109.726646 369.319366,109.838058 381.479340,109.736801 C385.166565,109.706108 388.268982,109.981209 388.301208,114.785194 C390.595520,114.785194 392.417908,114.785194 394.240295,114.785194 C420.566254,114.785233 446.892487,114.847107 473.218048,114.748405 C481.337524,114.717972 488.640594,116.738464 495.120209,121.725563 C500.028900,125.503571 505.585083,127.250038 511.861572,127.161400 C523.522644,126.996742 535.193237,126.898972 546.849121,127.195343 C554.321167,127.385323 560.898315,125.622910 566.975525,121.225296 C573.354736,116.609261 580.568481,114.630745 588.559692,114.715378 C608.551819,114.927094 628.547791,114.785210 648.542175,114.785202 C656.528320,114.785202 664.514465,114.785202 672.731079,114.785202 C672.990112,110.181244 675.725525,109.316299 679.581787,109.371834 C690.409790,109.527756 701.246399,109.586533 712.067505,109.270142 C714.081421,109.211258 717.673157,107.339378 717.756470,106.115089 C718.281738,98.392624 718.022705,90.616806 718.022705,82.993828 C592.676575,82.993828 467.984619,82.993828 342.802032,82.993828 C342.802032,90.880905 342.802032,98.353699 342.480804,105.108261 C342.333344,103.145355 342.148590,101.184402 342.045593,99.219170 C341.762604,93.818718 341.513916,88.416466 341.129211,82.122169 M858.210022,660.500061 C858.210022,468.062683 858.210022,275.625305 858.210022,82.927589 C817.764709,82.927589 777.885010,82.927589 737.268311,82.927589 C737.268311,91.384232 737.642212,99.524933 737.179321,107.617783 C736.511169,119.297813 727.231201,128.244492 715.627136,128.504547 C703.300781,128.780777 690.962585,128.642624 678.632202,128.482086 C677.038269,128.461334 674.404907,127.556664 674.068665,126.489365 C672.976501,123.023201 670.498474,123.589294 668.089905,123.588211 C642.591553,123.576706 617.092163,123.714783 591.595581,123.502998 C583.464844,123.435455 576.218201,125.190384 569.535645,129.936066 C563.415710,134.282227 556.465027,136.211090 548.847168,136.089935 C536.684326,135.896454 524.515503,135.958420 512.350586,136.066223 C504.253418,136.137970 497.232849,133.614456 490.299194,129.368469 C485.534058,126.450417 479.620209,123.965050 474.168060,123.855156 C446.680939,123.301170 419.176788,123.570625 391.678894,123.649330 C390.442657,123.652863 389.171265,124.535545 387.982727,125.139626 C385.831146,126.233162 383.758972,128.352310 381.602539,128.420273 C370.780670,128.761337 359.941040,128.677200 349.109863,128.553177 C332.976227,128.368454 323.971069,119.097046 323.943420,102.843834 C323.931946,96.084129 323.941528,89.324402 323.941528,82.494110 C290.306824,82.494110 257.385468,82.494110 224.271881,82.494110 C224.271881,381.630585 224.271881,680.491028 224.271881,979.650635 C435.673401,979.650635 646.732971,979.650635 858.210022,979.650635 C858.210022,873.417725 858.210022,767.458923 858.210022,660.500061 M393.500000,994.942993 C385.834503,994.942993 378.169006,994.943054 370.503510,994.943054 C322.337250,994.942932 274.170990,994.952332 226.004761,994.907715 C224.077774,994.905945 220.704895,994.834839 220.461929,994.042664 C219.008743,989.304626 214.800034,986.368896 214.806702,980.281799 C215.129868,685.451355 215.089188,390.620453 215.089600,95.789627 C215.089600,94.289650 215.148499,92.787498 215.086929,91.290184 C214.979095,88.667343 215.451431,86.785156 218.756882,86.611938 C219.783127,86.558151 221.553757,84.960701 221.567184,84.049126 C221.625763,80.068176 224.079910,80.030098 226.953552,80.040085 C239.953262,80.085274 252.953247,80.057663 265.953125,80.057007 C283.452972,80.056122 300.952850,80.048370 318.452698,80.062904 C321.335480,80.065300 324.372772,80.442650 324.248535,76.054939 C324.232300,75.481705 324.687988,74.535439 325.149597,74.363037 C330.820312,72.245094 329.017639,67.399666 329.090332,63.395466 C329.295013,52.124527 332.849762,46.972301 343.187042,42.948441 C344.350769,42.495457 345.534515,40.874416 345.815948,39.598114 C346.740753,35.404270 345.048004,33.832348 340.502716,33.851166 C300.337067,34.017471 260.170471,33.937637 220.004211,33.985279 C217.355545,33.988419 214.650879,34.175026 212.068069,34.725651 C193.670059,38.647854 182.080093,53.471996 182.079559,73.011002 C182.071655,364.508514 182.072220,656.006042 182.071075,947.503540 C182.070999,968.336670 182.063873,989.169861 182.079010,1010.002991 C182.084442,1017.472595 183.546417,1024.604492 187.598190,1030.984619 C195.872116,1044.013306 208.003357,1049.128906 223.182953,1049.121948 C435.014435,1049.025146 646.845947,1049.056763 858.677490,1049.052734 C860.677002,1049.052612 862.685730,1049.107666 864.674377,1048.944214 C873.770691,1048.196045 881.771790,1044.988525 888.417175,1038.533936 C896.996460,1030.200684 900.040283,1019.966248 900.037781,1008.236633 C899.971313,697.239258 899.984619,386.241943 899.980591,75.244598 C899.980591,73.245026 900.006897,71.240715 899.887451,69.246613 C898.720276,49.767162 883.132996,34.173523 863.725830,34.067955 C816.061035,33.808670 768.393982,33.933647 720.728210,34.066822 C719.120361,34.071316 716.492065,35.540691 716.130737,36.829445 C715.431213,39.324718 715.141479,42.072063 719.149475,43.441212 C728.431519,46.612000 731.911316,52.173050 732.245544,61.891281 C732.403076,66.471931 730.204346,72.045021 736.625122,74.543243 C736.861267,74.635155 737.076477,75.092972 737.092712,75.391586 C737.371826,80.537292 741.025635,80.081604 744.592285,80.078209 C781.258667,80.043343 817.925415,80.143051 854.590820,79.954895 C859.476196,79.929825 861.303040,81.463730 860.705322,86.212624 C860.498901,87.853249 860.673584,89.541794 860.673584,91.208443 C860.673645,326.206451 860.953979,561.205017 860.488770,796.202087 C860.362671,859.877808 863.357300,923.605225 858.637939,987.247620 C858.069580,994.912659 858.413818,994.942444 850.496094,994.942444 C698.497375,994.943237 546.498718,994.942993 393.500000,994.942993 M402.500000,26.013187 C386.343292,26.013300 370.185150,26.132263 354.030762,25.938526 C349.398651,25.882973 347.744507,27.625362 347.986389,32.121239 C348.236542,36.771542 348.040619,41.445797 348.041412,46.109573 C348.042938,54.809799 348.043427,54.814156 356.568726,54.814228 C472.496918,54.815216 588.425110,54.814949 704.353333,54.814335 C705.685791,54.814327 707.018982,54.832535 708.350586,54.795670 C711.564392,54.706669 713.184387,53.256699 713.086670,49.820606 C712.935303,44.494911 713.051758,39.161690 713.049133,33.831661 C713.045288,26.018444 713.043213,26.014061 705.313049,26.013981 C604.708679,26.012926 504.104340,26.013210 402.500000,26.013187 M649.500000,56.944378 C566.838867,56.944412 484.177673,56.944569 401.516510,56.944382 C385.684204,56.944347 369.851532,56.995865 354.020111,56.877380 C351.968262,56.862030 349.844727,56.168438 347.897949,55.417091 C346.146271,54.741066 343.475739,52.435658 343.134247,52.776493 C341.138489,54.768333 338.969666,57.131664 338.278503,59.744942 C337.453827,62.863136 337.987946,66.361542 338.090668,69.690392 C338.118500,70.591957 338.519775,71.631737 339.085693,72.339249 C340.877258,74.578873 342.827820,76.691277 345.394501,79.628281 C468.475342,79.628281 592.902832,79.628281 716.889893,79.628281 C718.144836,77.223663 718.702759,74.640511 720.302917,73.368889 C725.370483,69.341728 725.089417,56.392128 719.394104,53.211136 C718.379578,52.644482 716.523010,53.164906 715.215515,53.632011 C712.584045,54.572098 710.076538,56.755726 707.494080,56.793369 C688.499329,57.070274 669.498779,56.943733 649.500000,56.944378 M221.795609,917.500122 C221.795609,641.415161 221.795609,365.330231 221.795609,89.120911 C215.830963,88.273621 217.740540,92.577721 217.739929,94.861977 C217.660797,389.829285 217.665924,684.796570 217.666931,979.763916 C217.666946,981.711182 217.666931,983.658386 217.666931,986.139343 C220.028244,986.139343 221.815659,986.139282 223.603088,986.139282 C431.080109,986.139221 638.557129,986.139221 846.034180,986.138000 C847.200562,986.137939 848.450806,986.376038 849.506958,986.029968 C850.361328,985.750000 851.523499,984.779602 851.553345,984.073486 C851.582764,983.375122 850.462280,982.160889 849.672485,981.993652 C848.075317,981.655334 846.360535,981.862122 844.694214,981.862061 C639.550293,981.860535 434.406342,981.860596 229.262405,981.860535 C226.973129,981.860535 224.683868,981.860596 221.795593,981.860596 C221.795593,960.386780 221.795593,939.443481 221.795609,917.500122 M337.500244,988.424744 C315.172119,988.424683 292.843964,988.424377 270.515839,988.424744 C255.685989,988.424988 240.856140,988.434509 226.026321,988.419495 C223.315033,988.416748 220.699722,988.404602 222.370926,992.621216 C433.392853,992.621216 644.433655,992.621216 855.509399,992.621216 C855.509399,988.961914 855.509399,985.579224 855.509399,982.196594 C855.154236,982.173828 854.799133,982.151001 854.443970,982.128235 C854.144714,984.092957 853.845520,986.057678 853.484985,988.424866 C681.696106,988.424866 510.098175,988.424866 337.500244,988.424744 M711.177979,111.847626 C700.681580,111.847939 690.183105,111.749382 679.690979,111.960167 C678.198120,111.990158 675.604431,113.363815 675.461853,114.386261 C674.946228,118.085381 675.258911,121.899971 675.258911,126.149590 C688.790100,126.149590 701.588867,126.246948 714.385376,126.121010 C726.142029,126.005310 734.809021,117.323723 735.034485,105.552307 C735.165283,98.723763 735.064758,91.890816 735.070374,85.059845 C735.078674,75.035973 735.077881,75.195305 725.164612,75.096100 C721.499573,75.059425 720.131165,76.065430 720.249573,79.868889 C720.493225,87.691933 720.358765,95.528152 720.308777,103.358498 C720.266968,109.917198 718.672974,111.515602 711.177979,111.847626 z"/>
  <path fill="#DAFFFF" opacity="1.000000" stroke="none" d=" M858.210022,661.000122 C858.210022,767.458923 858.210022,873.417725 858.210022,979.650635 C646.732971,979.650635 435.673401,979.650635 224.271881,979.650635 C224.271881,680.491028 224.271881,381.630585 224.271881,82.494110 C257.385468,82.494110 290.306824,82.494110 323.941528,82.494110 C323.941528,89.324402 323.931946,96.084129 323.943420,102.843834 C323.971069,119.097046 332.976227,128.368454 349.109863,128.553177 C359.941040,128.677200 370.780670,128.761337 381.602539,128.420273 C383.758972,128.352310 385.831146,126.233162 387.982727,125.139626 C389.171265,124.535545 390.442657,123.652863 391.678894,123.649330 C419.176788,123.570625 446.680939,123.301170 474.168060,123.855156 C479.620209,123.965050 485.534058,126.450417 490.299194,129.368469 C497.232849,133.614456 504.253418,136.137970 512.350586,136.066223 C524.515503,135.958420 536.684326,135.896454 548.847168,136.089935 C556.465027,136.211090 563.415710,134.282227 569.535645,129.936066 C576.218201,125.190384 583.464844,123.435455 591.595581,123.502998 C617.092163,123.714783 642.591553,123.576706 668.089905,123.588211 C670.498474,123.589294 672.976501,123.023201 674.068665,126.489365 C674.404907,127.556664 677.038269,128.461334 678.632202,128.482086 C690.962585,128.642624 703.300781,128.780777 715.627136,128.504547 C727.231201,128.244492 736.511169,119.297813 737.179321,107.617783 C737.642212,99.524933 737.268311,91.384232 737.268311,82.927589 C777.885010,82.927589 817.764709,82.927589 858.210022,82.927589 C858.210022,275.625305 858.210022,468.062683 858.210022,661.000122 z"/>
  <path fill="#64CCC5" opacity="1.000000" stroke="none" d=" M394.000000,994.942932 C546.498718,994.942993 698.497375,994.943237 850.496094,994.942444 C858.413818,994.942444 858.069580,994.912659 858.637939,987.247620 C863.357300,923.605225 860.362671,859.877808 860.488770,796.202087 C860.953979,561.205017 860.673645,326.206451 860.673584,91.208443 C860.673584,89.541794 860.498901,87.853249 860.705322,86.212624 C861.303040,81.463730 859.476196,79.929825 854.590820,79.954895 C817.925415,80.143051 781.258667,80.043343 744.592285,80.078209 C741.025635,80.081604 737.371826,80.537292 737.092712,75.391586 C737.076477,75.092972 736.861267,74.635155 736.625122,74.543243 C730.204346,72.045021 732.403076,66.471931 732.245544,61.891281 C731.911316,52.173050 728.431519,46.612000 719.149475,43.441212 C715.141479,42.072063 715.431213,39.324718 716.130737,36.829445 C716.492065,35.540691 719.120361,34.071316 720.728210,34.066822 C768.393982,33.933647 816.061035,33.808670 863.725830,34.067955 C883.132996,34.173523 898.720276,49.767162 899.887451,69.246613 C900.006897,71.240715 899.980591,73.245026 899.980591,75.244598 C899.984619,386.241943 899.971313,697.239258 900.037781,1008.236633 C900.040283,1019.966248 896.996460,1030.200684 888.417175,1038.533936 C881.771790,1044.988525 873.770691,1048.196045 864.674377,1048.944214 C862.685730,1049.107666 860.677002,1049.052612 858.677490,1049.052734 C646.845947,1049.056763 435.014435,1049.025146 223.182953,1049.121948 C208.003357,1049.128906 195.872116,1044.013306 187.598190,1030.984619 C183.546417,1024.604492 182.084442,1017.472595 182.079010,1010.002991 C182.063873,989.169861 182.070999,968.336670 182.071075,947.503540 C182.072220,656.006042 182.071655,364.508514 182.079559,73.011002 C182.080093,53.471996 193.670059,38.647854 212.068069,34.725651 C214.650879,34.175026 217.355545,33.988419 220.004211,33.985279 C260.170471,33.937637 300.337067,34.017471 340.502716,33.851166 C345.048004,33.832348 346.740753,35.404270 345.815948,39.598114 C345.534515,40.874416 344.350769,42.495457 343.187042,42.948441 C332.849762,46.972301 329.295013,52.124527 329.090332,63.395466 C329.017639,67.399666 330.820312,72.245094 325.149597,74.363037 C324.687988,74.535439 324.232300,75.481705 324.248535,76.054939 C324.372772,80.442650 321.335480,80.065300 318.452698,80.062904 C300.952850,80.048370 283.452972,80.056122 265.953125,80.057007 C252.953247,80.057663 239.953262,80.085274 226.953552,80.040085 C224.079910,80.030098 221.625763,80.068176 221.567184,84.049126 C221.553757,84.960701 219.783127,86.558151 218.756882,86.611938 C215.451431,86.785156 214.979095,88.667343 215.086929,91.290184 C215.148499,92.787498 215.089600,94.289650 215.089600,95.789627 C215.089188,390.620453 215.129868,685.451355 214.806702,980.281799 C214.800034,986.368896 219.008743,989.304626 220.461929,994.042664 C220.704895,994.834839 224.077774,994.905945 226.004761,994.907715 C274.170990,994.952332 322.337250,994.942932 370.503510,994.943054 C378.169006,994.943054 385.834503,994.942993 394.000000,994.942932 z"/>
  <path fill="#D9FEFE" opacity="1.000000" stroke="none" d=" M342.802032,105.826492 C342.802032,98.353699 342.802032,90.880905 342.802032,82.993828 C467.984619,82.993828 592.676575,82.993828 718.022705,82.993828 C718.022705,90.616806 718.281738,98.392624 717.756470,106.115089 C717.673157,107.339378 714.081421,109.211258 712.067505,109.270142 C701.246399,109.586533 690.409790,109.527756 679.581787,109.371834 C675.725525,109.316299 672.990112,110.181244 672.731079,114.785202 C664.514465,114.785202 656.528320,114.785202 648.542175,114.785202 C628.547791,114.785210 608.551819,114.927094 588.559692,114.715378 C580.568481,114.630745 573.354736,116.609261 566.975525,121.225296 C560.898315,125.622910 554.321167,127.385323 546.849121,127.195343 C535.193237,126.898972 523.522644,126.996742 511.861572,127.161400 C505.585083,127.250038 500.028900,125.503571 495.120209,121.725563 C488.640594,116.738464 481.337524,114.717972 473.218048,114.748405 C446.892487,114.847107 420.566254,114.785233 394.240295,114.785194 C392.417908,114.785194 390.595520,114.785194 388.301208,114.785194 C388.268982,109.981209 385.166565,109.706108 381.479340,109.736801 C369.319366,109.838058 357.157654,109.726646 344.416382,109.496826 C343.562469,108.719673 343.288757,108.142578 342.994324,107.126747 C342.916412,106.400833 342.859222,106.113663 342.802032,105.826492 z"/>
  <path fill="#FD9212" opacity="1.000000" stroke="none" d=" M403.000000,26.013172 C504.104340,26.013210 604.708679,26.012926 705.313049,26.013981 C713.043213,26.014061 713.045288,26.018444 713.049133,33.831661 C713.051758,39.161690 712.935303,44.494911 713.086670,49.820606 C713.184387,53.256699 711.564392,54.706669 708.350586,54.795670 C707.018982,54.832535 705.685791,54.814327 704.353333,54.814335 C588.425110,54.814949 472.496918,54.815216 356.568726,54.814228 C348.043427,54.814156 348.042938,54.809799 348.041412,46.109573 C348.040619,41.445797 348.236542,36.771542 347.986389,32.121239 C347.744507,27.625362 349.398651,25.882973 354.030762,25.938526 C370.185150,26.132263 386.343292,26.013300 403.000000,26.013172 z"/>
  <path fill="#64CCC5" opacity="1.000000" stroke="none" d=" M650.000000,56.944321 C669.498779,56.943733 688.499329,57.070274 707.494080,56.793369 C710.076538,56.755726 712.584045,54.572098 715.215515,53.632011 C716.523010,53.164906 718.379578,52.644482 719.394104,53.211136 C725.089417,56.392128 725.370483,69.341728 720.302917,73.368889 C718.702759,74.640511 718.144836,77.223663 716.889893,79.628281 C592.902832,79.628281 468.475342,79.628281 345.394501,79.628281 C342.827820,76.691277 340.877258,74.578873 339.085693,72.339249 C338.519775,71.631737 338.118500,70.591957 338.090668,69.690392 C337.987946,66.361542 337.453827,62.863136 338.278503,59.744942 C338.969666,57.131664 341.138489,54.768333 343.134247,52.776493 C343.475739,52.435658 346.146271,54.741066 347.897949,55.417091 C349.844727,56.168438 351.968262,56.862030 354.020111,56.877380 C369.851532,56.995865 385.684204,56.944347 401.516510,56.944382 C484.177673,56.944569 566.838867,56.944412 650.000000,56.944321 z"/>
  <path fill="#D3F9FA" opacity="1.000000" stroke="none" d=" M221.795593,918.000122 C221.795593,939.443481 221.795593,960.386780 221.795593,981.860596 C224.683868,981.860596 226.973129,981.860535 229.262405,981.860535 C434.406342,981.860596 639.550293,981.860535 844.694214,981.862061 C846.360535,981.862122 848.075317,981.655334 849.672485,981.993652 C850.462280,982.160889 851.582764,983.375122 851.553345,984.073486 C851.523499,984.779602 850.361328,985.750000 849.506958,986.029968 C848.450806,986.376038 847.200562,986.137939 846.034180,986.138000 C638.557129,986.139221 431.080109,986.139221 223.603088,986.139282 C221.815659,986.139282 220.028244,986.139343 217.666931,986.139343 C217.666931,983.658386 217.666946,981.711182 217.666931,979.763916 C217.665924,684.796570 217.660797,389.829285 217.739929,94.861977 C217.740540,92.577721 215.830963,88.273621 221.795609,89.120911 C221.795609,365.330231 221.795609,641.415161 221.795593,918.000122 z"/>
  <path fill="#FB9113" opacity="1.000000" stroke="none" d=" M343.015045,107.565475 C343.288757,108.142578 343.562469,108.719673 343.952026,109.517944 C345.931824,110.330269 347.787689,111.401070 349.661041,111.432655 C359.800262,111.603645 369.943787,111.517540 380.085846,111.519875 C381.878387,111.520287 383.670898,111.519936 385.816101,111.519936 C385.816101,116.639595 385.816101,121.201607 385.816101,126.230690 C383.953461,126.318398 382.171692,126.471420 380.389648,126.474915 C369.416351,126.496460 358.442078,126.569435 347.469788,126.460960 C334.786804,126.335579 326.156555,117.764549 326.049713,105.152634 C325.970886,95.844780 326.147675,86.534660 326.236633,77.225792 C326.241119,76.755951 326.492737,76.288467 326.744995,75.422836 C331.215851,75.422836 335.752197,75.422836 341.129211,75.422836 C341.129211,77.629753 341.129211,79.875961 341.106689,83.028961 C341.070160,90.344543 340.935089,96.757057 341.132568,103.159325 C341.178406,104.645981 342.357422,106.097687 343.015045,107.565475 z"/>
  <path fill="#FB9113" opacity="1.000000" stroke="none" d=" M711.636230,111.847443 C718.672974,111.515602 720.266968,109.917198 720.308777,103.358498 C720.358765,95.528152 720.493225,87.691933 720.249573,79.868889 C720.131165,76.065430 721.499573,75.059425 725.164612,75.096100 C735.077881,75.195305 735.078674,75.035973 735.070374,85.059845 C735.064758,91.890816 735.165283,98.723763 735.034485,105.552307 C734.809021,117.323723 726.142029,126.005310 714.385376,126.121010 C701.588867,126.246948 688.790100,126.149590 675.258911,126.149590 C675.258911,121.899971 674.946228,118.085381 675.461853,114.386261 C675.604431,113.363815 678.198120,111.990158 679.690979,111.960167 C690.183105,111.749382 700.681580,111.847939 711.636230,111.847443 z"/>
  <path fill="#3D7A84" opacity="1.000000" stroke="none" d=" M342.994324,107.126740 C342.357422,106.097687 341.178406,104.645981 341.132568,103.159325 C340.935089,96.757057 341.070160,90.344543 341.167908,83.475342 C341.513916,88.416466 341.762604,93.818718 342.045593,99.219170 C342.148590,101.184402 342.333344,103.145355 342.641418,105.467377 C342.859222,106.113663 342.916412,106.400833 342.994324,107.126740 z"/>
</svg>